<svg width="34" height="35" viewBox="0 0 34 35" fill="none" xmlns="http://www.w3.org/2000/svg">
<path fill-rule="evenodd" clip-rule="evenodd" d="M30.5 17.208V17.0001C30.5 9.54422 24.4558 3.50006 17 3.50006C9.54416 3.50006 3.5 9.54422 3.5 17.0001V17.208C4.38295 17.5938 5 18.4749 5 19.5V25.5C5 26.8807 3.88071 28 2.5 28C1.11929 28 0 26.8807 0 25.5V19.5C0 18.9371 0.186045 18.4176 0.5 17.9998V17.0001C0.5 7.88736 7.8873 0.500061 17 0.500061C26.1127 0.500061 33.5 7.88736 33.5 17.0001V17.9998C33.814 18.4176 34 18.9371 34 19.5V25.5C34 26.508 33.4034 27.3767 32.5441 27.7722C31.2734 30.4575 28.842 32.4863 25.8975 33.2108C25.5913 34.2453 24.6338 35 23.5 35H22.5C21.1193 35 20 33.8807 20 32.5V31.5C20 30.1193 21.1193 29 22.5 29H23.5C24.3934 29 25.1773 29.4686 25.6194 30.1735C27.2779 29.6472 28.6688 28.5198 29.5361 27.0471C29.2003 26.6215 29 26.0842 29 25.5V19.5C29 18.4749 29.617 17.5938 30.5 17.208Z" fill="#5C6977"/>
<path fill-rule="evenodd" clip-rule="evenodd" d="M8 17C6.89543 17 6 17.8954 6 19V26C6 27.1046 6.89543 28 8 28C9.10457 28 10 27.1046 10 26V19C10 17.8954 9.10457 17 8 17ZM26 17C24.8954 17 24 17.8954 24 19V26C24 27.1046 24.8954 28 26 28C27.1046 28 28 27.1046 28 26V19C28 17.8954 27.1046 17 26 17Z" fill="#21C397"/>
</svg>
